<?xml version="1.0" encoding="utf-8"?>
<!-- Generator: Adobe Illustrator 18.1.0, SVG Export Plug-In . SVG Version: 6.00 Build 0)  -->
<!DOCTYPE svg PUBLIC "-//W3C//DTD SVG 1.1//EN" "http://www.w3.org/Graphics/SVG/1.1/DTD/svg11.dtd">
<svg version="1.1" id="Layer_1" xmlns="http://www.w3.org/2000/svg" xmlns:xlink="http://www.w3.org/1999/xlink" x="0px" y="0px"
	 viewBox="0 0 500 600" enable-background="new 0 0 500 600" xml:space="preserve">
<g>
	<g>
		<path fill="#FFFFFF" d="M390,2.8h-2.1c10.3,8.3,17.1,20.8,17.1,35v115h20v-115C425,18.5,409.3,2.8,390,2.8z"/>
		<path fill="#FFFFFF" d="M419.4,4c9.5,8.3,15.6,20.3,15.6,33.8v115h15v-110C450,23.9,437,8.3,419.4,4z"/>
		<path fill="#FFFFFF" d="M375,37.8v115h20v-115c0-19.3-15.7-35-35-35h-2.1C368.3,11,375,23.6,375,37.8z"/>
		<path fill="#FFFFFF" d="M365,37.8c0-19.3-15.7-35-35-35H90c-22.1,0-40,17.9-40,40v110h315V37.8z"/>
	</g>
</g>
<g>
	<path fill="#FFFFFF" d="M169.4,319.6c-8.5,0-15.6,3.5-21.5,10.4c-5.8,7-8.8,15.7-8.8,26.2s2.9,19,8.8,25.7c5.8,6.6,12.9,10,21.2,10
		s15.6-3.3,21.8-10s9.4-15.2,9.4-25.6c0-10.4-3-19.1-9.1-26.2C185.1,323.2,177.8,319.6,169.4,319.6z"/>
	<path fill="#FFFFFF" d="M329.2,319.6c-8.5,0-15.6,3.5-21.5,10.4c-5.8,7-8.8,15.7-8.8,26.2s2.9,19,8.8,25.7s12.9,10,21.2,10
		s15.6-3.3,21.8-10s9.4-15.2,9.4-25.6c0-10.4-3-19.1-9.1-26.2C345,323.2,337.7,319.6,329.2,319.6z"/>
	<path fill="#FFFFFF" d="M460,172.8H40c-22.1,0-40,17.9-40,40v262.9c0,16.4,10,31.1,25.1,37.1l210,84c9.5,3.8,20.2,3.8,29.7,0
		l210-84C490,506.8,500,492,500,475.7V212.8C500,190.7,482.1,172.8,460,172.8z M218.9,403.4c-11.8,12.8-25.5,19.2-41.3,19.2
		c-8.6,0-16.3-1.9-23.1-5.7c-6.7-3.7-15,0.9-15,8.6v31.7c0,5.5-4.5,10-10,10h-16c-5.5,0-10-4.5-10-10V301.6c0-5.5,4.5-10,10-10h16
		c5.5,0,10,4.5,10,10v4.4c11-11,24.1-16.6,39.1-16.6s28.4,6.3,40.2,18.8c11.8,12.6,17.6,28.4,17.6,47.4S230.7,390.6,218.9,403.4z
		 M378.4,403.2c-12,13-25.6,19.4-40.9,19.4c-15.3,0-28-6.3-38-19v7c0,5.5-4.5,10-10,10h-16c-5.5,0-10-4.5-10-10V252.6
		c0-5.5,4.5-10,10-10h16c5.5,0,10,4.5,10,10v32.8c0,7.4,7.8,12.8,14.3,9.4c7.1-3.6,15.1-5.4,24.1-5.4c15.7,0,29.4,6.1,41,18.4
		c11.7,12.2,17.5,28,17.5,47.2S390.4,390.2,378.4,403.2z"/>
</g>
</svg>
